<svg width="9" height="16" viewBox="0 0 9 16" fill="none" xmlns="http://www.w3.org/2000/svg">
<g opacity="0.6988">
<path d="M8.06513 0.00322528L6.05497 0C3.79664 0 2.3372 1.49733 2.3372 3.81486V5.57376H0.316077C0.141428 5.57376 0 5.71535 0 5.89V8.43845C0 8.6131 0.14159 8.75453 0.316077 8.75453H2.3372V15.1851C2.3372 15.3597 2.47863 15.5012 2.65327 15.5012H5.29026C5.46491 15.5012 5.60634 15.3596 5.60634 15.1851V8.75453H7.9695C8.14415 8.75453 8.28558 8.6131 8.28558 8.43845L8.28654 5.89C8.28654 5.80614 8.25316 5.72583 8.19398 5.66649C8.13479 5.60714 8.05416 5.57376 7.97031 5.57376H5.60634V4.08272C5.60634 3.36606 5.77712 3.00225 6.71067 3.00225L8.06481 3.00177C8.23929 3.00177 8.38072 2.86018 8.38072 2.68569V0.319302C8.38072 0.144976 8.23945 0.0035478 8.06513 0.00322528Z" fill="#9B9B9B"/>
</g>
</svg>
