<svg width="153" height="115" viewBox="0 0 153 115" fill="none" xmlns="http://www.w3.org/2000/svg">
<path opacity="0.667457" fill-rule="evenodd" clip-rule="evenodd" d="M39.6933 0H10.1345C4.53735 0 0 4.53735 0 10.1345V28.7776V33.7815V95.3695C0 101.875 0.650238 104.4 1.87443 106.783L2.03043 107.08C3.35531 109.558 5.29952 111.502 7.77683 112.827C10.1551 114.099 12.5148 114.8 18.695 114.854L19.4877 114.857H133.374C139.879 114.857 142.404 114.207 144.787 112.983L145.085 112.827C147.562 111.502 149.506 109.558 150.831 107.08C152.103 104.702 152.804 102.342 152.858 96.1622L152.861 95.3695V28.7776C152.861 22.2724 152.211 19.7476 150.987 17.3642L150.831 17.0668C149.506 14.5894 147.562 12.6452 145.085 11.3204C142.607 9.99547 140.15 9.28992 133.374 9.28992L50.8419 9.29053L39.6933 0Z" fill="#FFC35F"/>
<path opacity="0.693848" fill-rule="evenodd" clip-rule="evenodd" d="M0.000488281 58.4771C9.54565 55.0316 21.9728 49.6512 37.7396 39.1413C46.3708 33.3879 46.4425 24.1131 46.525 13.4635C46.544 11.0053 46.5636 8.47382 46.6891 5.89551L50.8424 9.35659L133.374 9.35598C140.15 9.35598 142.608 10.0615 145.085 11.3864C147.562 12.7113 149.507 14.6555 150.831 17.1328L150.987 17.4303C152.212 19.8136 152.862 22.3384 152.862 28.8437V43.0179C150.59 48.6922 147.659 54.1507 144.733 59.3083C143.828 60.9028 142.586 62.3329 141.349 63.7574L141.349 63.7575C139.334 66.0765 137.333 68.3806 136.822 71.3548C135.995 76.1652 136.631 81.0628 137.268 85.9701C137.813 90.1704 138.359 94.3777 137.989 98.5436C137.349 105.765 128.214 111.17 118.908 114.923H19.4882L18.6955 114.92C12.5153 114.866 10.1555 114.165 7.77732 112.893C5.30001 111.568 3.3558 109.624 2.03092 107.146L1.87491 106.849C0.650726 104.466 0.000488281 101.941 0.000488281 95.4355V58.4771Z" fill="#FFC35F"/>
<path fill-rule="evenodd" clip-rule="evenodd" d="M124.416 48.3838C133.005 48.3838 139.968 41.4209 139.968 32.8318C139.968 24.2427 133.005 17.2798 124.416 17.2798C115.827 17.2798 108.864 24.2427 108.864 32.8318C108.864 41.4209 115.827 48.3838 124.416 48.3838Z" fill="#FF9500"/>
<g opacity="0.796224">
<path fill-rule="evenodd" clip-rule="evenodd" d="M119.376 25.6318H129.456C130.649 25.6318 131.616 26.5989 131.616 27.7918V34.9918V37.8718C131.616 39.0648 130.649 40.0318 129.456 40.0318H119.376C118.183 40.0318 117.216 39.0648 117.216 37.8718V27.7918C117.216 26.5989 118.183 25.6318 119.376 25.6318ZM130.176 33.2536V27.7918C130.176 27.3942 129.854 27.0718 129.456 27.0718H119.376C118.978 27.0718 118.656 27.3942 118.656 27.7918V37.8718C118.656 38.1806 118.85 38.4439 119.123 38.5463L126.787 30.8827C127.068 30.6015 127.524 30.6015 127.805 30.8827L130.176 33.2536ZM121.114 38.5918L127.296 32.4101L130.176 35.2901V37.8718C130.176 38.2695 129.854 38.5918 129.456 38.5918H121.114ZM120.096 30.3118C120.096 31.3059 120.902 32.1118 121.896 32.1118C122.89 32.1118 123.696 31.3059 123.696 30.3118C123.696 29.3177 122.89 28.5118 121.896 28.5118C120.902 28.5118 120.096 29.3177 120.096 30.3118ZM121.896 30.6718C122.095 30.6718 122.256 30.5107 122.256 30.3118C122.256 30.113 122.095 29.9518 121.896 29.9518C121.697 29.9518 121.536 30.113 121.536 30.3118C121.536 30.5107 121.697 30.6718 121.896 30.6718Z" fill="white"/>
<mask id="mask0" mask-type="alpha" maskUnits="userSpaceOnUse" x="117" y="25" width="15" height="16">
<path fill-rule="evenodd" clip-rule="evenodd" d="M119.376 25.6318H129.456C130.649 25.6318 131.616 26.5989 131.616 27.7918V34.9918V37.8718C131.616 39.0648 130.649 40.0318 129.456 40.0318H119.376C118.183 40.0318 117.216 39.0648 117.216 37.8718V27.7918C117.216 26.5989 118.183 25.6318 119.376 25.6318ZM130.176 33.2536V27.7918C130.176 27.3942 129.854 27.0718 129.456 27.0718H119.376C118.978 27.0718 118.656 27.3942 118.656 27.7918V37.8718C118.656 38.1806 118.85 38.4439 119.123 38.5463L126.787 30.8827C127.068 30.6015 127.524 30.6015 127.805 30.8827L130.176 33.2536ZM121.114 38.5918L127.296 32.4101L130.176 35.2901V37.8718C130.176 38.2695 129.854 38.5918 129.456 38.5918H121.114ZM120.096 30.3118C120.096 31.3059 120.902 32.1118 121.896 32.1118C122.89 32.1118 123.696 31.3059 123.696 30.3118C123.696 29.3177 122.89 28.5118 121.896 28.5118C120.902 28.5118 120.096 29.3177 120.096 30.3118ZM121.896 30.6718C122.095 30.6718 122.256 30.5107 122.256 30.3118C122.256 30.113 122.095 29.9518 121.896 29.9518C121.697 29.9518 121.536 30.113 121.536 30.3118C121.536 30.5107 121.697 30.6718 121.896 30.6718Z" fill="white"/>
</mask>
<g mask="url(#mask0)">
</g>
</g>
</svg>