<svg width="153" height="115" viewBox="0 0 153 115" fill="none" xmlns="http://www.w3.org/2000/svg">
<path fill-rule="evenodd" clip-rule="evenodd" d="M39.6933 0H10.1345C4.53735 0 0 4.53735 0 10.1345V28.7776V33.7815V95.3695C0 101.875 0.650238 104.4 1.87443 106.783L2.03043 107.08C3.35531 109.558 5.29952 111.502 7.77683 112.827C10.1551 114.099 12.5148 114.8 18.695 114.854L19.4877 114.857H133.374C139.879 114.857 142.404 114.207 144.787 112.983L145.085 112.827C147.562 111.502 149.506 109.558 150.831 107.08C152.103 104.702 152.804 102.342 152.858 96.1622L152.861 95.3695V28.7776C152.861 22.2724 152.211 19.7476 150.987 17.3642L150.831 17.0668C149.506 14.5894 147.562 12.6452 145.085 11.3204C142.607 9.99547 140.15 9.28992 133.374 9.28992L50.8419 9.29053L39.6933 0Z" fill="#E34D82"/>
<path opacity="0.49721" fill-rule="evenodd" clip-rule="evenodd" d="M0.000488281 58.4932C9.54565 55.0477 21.9728 49.6674 37.7396 39.1574C46.3708 33.404 46.4425 24.1292 46.525 13.4796C46.544 11.0214 46.5636 8.48993 46.6891 5.91162L50.8424 9.3727L133.374 9.37209C140.15 9.37209 142.608 10.0776 145.085 11.4025C147.562 12.7274 149.507 14.6716 150.831 17.1489L150.987 17.4464C152.212 19.8297 152.862 22.3545 152.862 28.8598V43.034C150.59 48.7083 147.659 54.1668 144.733 59.3244C143.828 60.9189 142.586 62.349 141.349 63.7735L141.349 63.7736C139.334 66.0926 137.333 68.3967 136.822 71.3709C135.995 76.1813 136.631 81.0789 137.268 85.9863C137.813 90.1865 138.359 94.3938 137.989 98.5597C137.349 105.781 128.214 111.186 118.908 114.939H19.4882L18.6955 114.936C12.5153 114.882 10.1555 114.181 7.77732 112.909C5.30001 111.584 3.3558 109.64 2.03092 107.163L1.87491 106.865C0.650726 104.482 0.000488281 101.957 0.000488281 95.4517V58.4932Z" fill="#EE266D"/>
<path opacity="0.244629" fill-rule="evenodd" clip-rule="evenodd" d="M124.848 49.2478C133.675 49.2478 140.832 42.0915 140.832 33.2638C140.832 24.4361 133.675 17.2798 124.848 17.2798C116.02 17.2798 108.864 24.4361 108.864 33.2638C108.864 42.0915 116.02 49.2478 124.848 49.2478Z" fill="white"/>
<g opacity="0.801781">
<path fill-rule="evenodd" clip-rule="evenodd" d="M117.284 32.4057C117.007 32.8342 116.817 33.1719 116.716 33.3743C116.615 33.577 116.615 33.8156 116.716 34.0183C116.817 34.2207 117.007 34.5584 117.284 34.9869C117.742 35.6961 118.283 36.4049 118.905 37.0687C120.716 39.0009 122.847 40.1763 125.28 40.1763C127.714 40.1763 129.844 39.0009 131.655 37.0687C132.278 36.4049 132.818 35.6961 133.276 34.9869C133.553 34.5584 133.743 34.2207 133.844 34.0183C133.945 33.8156 133.945 33.577 133.844 33.3743C133.743 33.1719 133.553 32.8342 133.276 32.4057C132.818 31.6965 132.278 30.9877 131.655 30.3239C129.844 28.3917 127.714 27.2163 125.28 27.2163C122.847 27.2163 120.716 28.3917 118.905 30.3239C118.283 30.9877 117.742 31.6965 117.284 32.4057ZM119.955 36.0839C119.397 35.4877 118.908 34.8465 118.494 34.2057C118.376 34.0238 118.272 33.853 118.181 33.6963C118.272 33.5396 118.376 33.3688 118.494 33.1869C118.908 32.5461 119.397 31.9049 119.955 31.3087C121.519 29.6409 123.304 28.6563 125.28 28.6563C127.257 28.6563 129.041 29.6409 130.605 31.3087C131.164 31.9049 131.653 32.5461 132.067 33.1869C132.184 33.3688 132.288 33.5396 132.379 33.6963C132.288 33.853 132.184 34.0238 132.067 34.2057C131.653 34.8465 131.164 35.4877 130.605 36.0839C129.041 37.7517 127.257 38.7363 125.28 38.7363C123.304 38.7363 121.519 37.7517 119.955 36.0839ZM125.28 36.5763C123.69 36.5763 122.4 35.2869 122.4 33.6963C122.4 32.1057 123.69 30.8163 125.28 30.8163C126.871 30.8163 128.16 32.1057 128.16 33.6963C128.16 35.2869 126.871 36.5763 125.28 36.5763ZM126.72 33.6963C126.72 34.4916 126.075 35.1363 125.28 35.1363C124.485 35.1363 123.84 34.4916 123.84 33.6963C123.84 32.901 124.485 32.2563 125.28 32.2563C126.075 32.2563 126.72 32.901 126.72 33.6963Z" fill="white"/>
<mask id="mask0" mask-type="alpha" maskUnits="userSpaceOnUse" x="116" y="27" width="18" height="14">
<path fill-rule="evenodd" clip-rule="evenodd" d="M117.284 32.4057C117.007 32.8342 116.817 33.1719 116.716 33.3743C116.615 33.577 116.615 33.8156 116.716 34.0183C116.817 34.2207 117.007 34.5584 117.284 34.9869C117.742 35.6961 118.283 36.4049 118.905 37.0687C120.716 39.0009 122.847 40.1763 125.28 40.1763C127.714 40.1763 129.844 39.0009 131.655 37.0687C132.278 36.4049 132.818 35.6961 133.276 34.9869C133.553 34.5584 133.743 34.2207 133.844 34.0183C133.945 33.8156 133.945 33.577 133.844 33.3743C133.743 33.1719 133.553 32.8342 133.276 32.4057C132.818 31.6965 132.278 30.9877 131.655 30.3239C129.844 28.3917 127.714 27.2163 125.28 27.2163C122.847 27.2163 120.716 28.3917 118.905 30.3239C118.283 30.9877 117.742 31.6965 117.284 32.4057ZM119.955 36.0839C119.397 35.4877 118.908 34.8465 118.494 34.2057C118.376 34.0238 118.272 33.853 118.181 33.6963C118.272 33.5396 118.376 33.3688 118.494 33.1869C118.908 32.5461 119.397 31.9049 119.955 31.3087C121.519 29.6409 123.304 28.6563 125.28 28.6563C127.257 28.6563 129.041 29.6409 130.605 31.3087C131.164 31.9049 131.653 32.5461 132.067 33.1869C132.184 33.3688 132.288 33.5396 132.379 33.6963C132.288 33.853 132.184 34.0238 132.067 34.2057C131.653 34.8465 131.164 35.4877 130.605 36.0839C129.041 37.7517 127.257 38.7363 125.28 38.7363C123.304 38.7363 121.519 37.7517 119.955 36.0839ZM125.28 36.5763C123.69 36.5763 122.4 35.2869 122.4 33.6963C122.4 32.1057 123.69 30.8163 125.28 30.8163C126.871 30.8163 128.16 32.1057 128.16 33.6963C128.16 35.2869 126.871 36.5763 125.28 36.5763ZM126.72 33.6963C126.72 34.4916 126.075 35.1363 125.28 35.1363C124.485 35.1363 123.84 34.4916 123.84 33.6963C123.84 32.901 124.485 32.2563 125.28 32.2563C126.075 32.2563 126.72 32.901 126.72 33.6963Z" fill="white"/>
</mask>
<g mask="url(#mask0)">
</g>
</g>
</svg>