<svg width="153" height="115" viewBox="0 0 153 118" fill="none" xmlns="http://www.w3.org/2000/svg">
  <path opacity="0.633743" fill-rule="evenodd" clip-rule="evenodd" d="M39.6933 0H10.1345C4.53735 0 0 4.53735 0 10.1345V28.7776V33.7815V95.3695C0 101.875 0.650238 104.4 1.87443 106.783L2.03043 107.08C3.35531 109.558 5.29952 111.502 7.77683 112.827C10.1551 114.099 12.5148 114.8 18.695 114.854L19.4877 114.857H133.374C139.879 114.857 142.404 114.207 144.787 112.983L145.085 112.827C147.562 111.502 149.506 109.558 150.831 107.08C152.103 104.702 152.804 102.342 152.858 96.1622L152.861 95.3695V28.7776C152.861 22.2724 152.211 19.7476 150.987 17.3642L150.831 17.0668C149.506 14.5894 147.562 12.6452 145.085 11.3204C142.607 9.99547 140.15 9.28992 133.374 9.28992L50.8419 9.29053L39.6933 0Z" fill="#536DFE"/>
  <path opacity="0.810919" fill-rule="evenodd" clip-rule="evenodd" d="M0.000488281 58.4771C9.54565 55.0316 21.9728 49.6512 37.7396 39.1413C46.3708 33.3879 46.4425 24.1131 46.525 13.4635C46.544 11.0053 46.5636 8.47382 46.6891 5.89551L50.8424 9.35659L133.374 9.35598C140.15 9.35598 142.608 10.0615 145.085 11.3864C147.562 12.7113 149.507 14.6555 150.831 17.1328L150.987 17.4303C152.212 19.8136 152.862 22.3384 152.862 28.8437V43.0179C150.59 48.6922 147.659 54.1507 144.733 59.3083C143.828 60.9028 142.586 62.3329 141.349 63.7574L141.349 63.7575C139.334 66.0765 137.333 68.3806 136.822 71.3548C135.995 76.1652 136.631 81.0628 137.268 85.9701C137.813 90.1703 138.359 94.3777 137.989 98.5435C137.349 105.765 128.214 111.17 118.908 114.923H19.4882L18.6955 114.92C12.5153 114.866 10.1555 114.165 7.77732 112.893C5.30001 111.568 3.3558 109.624 2.03092 107.146L1.87491 106.849C0.650726 104.466 0.000488281 101.941 0.000488281 95.4355V58.4771Z" fill="#536DFE"/>
  <path opacity="0.243443" fill-rule="evenodd" clip-rule="evenodd" d="M124.416 50.1118C133.005 50.1118 139.968 43.1489 139.968 34.5598C139.968 25.9707 133.005 19.0078 124.416 19.0078C115.827 19.0078 108.864 25.9707 108.864 34.5598C108.864 43.1489 115.827 50.1118 124.416 50.1118Z" fill="white"/>
  <g opacity="0.800014">
  <path fill-rule="evenodd" clip-rule="evenodd" d="M129.456 27.3599H119.376C118.183 27.3599 117.216 28.3269 117.216 29.5199V32.3999V39.5999C117.216 40.7928 118.183 41.7599 119.376 41.7599H122.256H129.456C130.649 41.7599 131.616 40.7928 131.616 39.5999V32.3999V29.5199C131.616 28.3269 130.649 27.3599 129.456 27.3599ZM122.976 40.3199H129.456C129.853 40.3199 130.176 39.9975 130.176 39.5999V33.1199H122.976V40.3199ZM121.536 33.1199V40.3199H119.376C118.978 40.3199 118.656 39.9975 118.656 39.5999V33.1199H121.536ZM122.256 31.6799H130.176V29.5199C130.176 29.1222 129.853 28.7999 129.456 28.7999H119.376C118.978 28.7999 118.656 29.1222 118.656 29.5199V31.6799H122.256Z" fill="white"/>
  <mask id="mask0" mask-type="alpha" maskUnits="userSpaceOnUse" x="117" y="27" width="15" height="15">
  <path fill-rule="evenodd" clip-rule="evenodd" d="M129.456 27.3599H119.376C118.183 27.3599 117.216 28.3269 117.216 29.5199V32.3999V39.5999C117.216 40.7928 118.183 41.7599 119.376 41.7599H122.256H129.456C130.649 41.7599 131.616 40.7928 131.616 39.5999V32.3999V29.5199C131.616 28.3269 130.649 27.3599 129.456 27.3599ZM122.976 40.3199H129.456C129.853 40.3199 130.176 39.9975 130.176 39.5999V33.1199H122.976V40.3199ZM121.536 33.1199V40.3199H119.376C118.978 40.3199 118.656 39.9975 118.656 39.5999V33.1199H121.536ZM122.256 31.6799H130.176V29.5199C130.176 29.1222 129.853 28.7999 129.456 28.7999H119.376C118.978 28.7999 118.656 29.1222 118.656 29.5199V31.6799H122.256Z" fill="white"/>
  </mask>
  <g mask="url(#mask0)">
  </g>
  </g>
</svg>