<svg width="19" height="18" viewBox="0 0 19 18" fill="none" xmlns="http://www.w3.org/2000/svg">
<g opacity="0.6988">
<path fill-rule="evenodd" clipRule="evenodd" d="M9.58389 0C4.84382 0 0.987549 3.85627 0.987549 8.59625C0.987549 13.3362 4.84382 17.1925 9.58389 17.1925C14.324 17.1925 18.1802 13.3362 18.1802 8.59625C18.1802 3.85627 14.324 0 9.58389 0ZM15.1858 4.05419C16.1508 5.24211 16.745 6.7415 16.7944 8.37597C15.0067 8.00588 13.388 8.04931 11.959 8.3295C11.7002 7.72441 11.4324 7.14793 11.162 6.60311C12.7183 5.93268 14.0731 5.07639 15.1858 4.05419ZM10.5224 5.37562C11.833 4.82454 13.113 4.07812 14.2174 3.07C12.9629 2.01642 11.3466 1.38023 9.58389 1.38023C9.06805 1.38023 8.56501 1.43571 8.07953 1.53914C8.64018 2.29192 9.56052 3.61657 10.5224 5.37562ZM6.6855 1.98992C7.10886 2.53852 8.11726 3.91212 9.20046 5.86643C6.4781 6.75337 3.83653 6.9028 2.56717 6.9167C3.09626 4.70649 4.64405 2.8891 6.6855 1.98992ZM2.41599 8.30051L2.37532 8.30042C2.37127 8.39869 2.36778 8.49706 2.36778 8.59625C2.36778 10.3711 3.01308 11.9972 4.07991 13.2554C4.65611 12.5438 5.71134 11.393 7.21763 10.3557C8.11588 9.73715 9.24988 9.1142 10.5946 8.68127C10.3536 8.13038 10.1051 7.60479 9.85506 7.10652C8.8947 7.43483 7.87121 7.69975 6.79187 7.89657C4.90004 8.24153 3.29308 8.30051 2.41599 8.30051ZM5.0745 14.2238C5.57055 13.5992 6.58024 12.4624 8.04079 11.4648C9.03336 10.7869 10.0603 10.2832 11.1174 9.95255C11.7308 11.5424 12.2544 13.2991 12.5667 15.1643C11.6568 15.5791 10.6474 15.8123 9.58389 15.8123C7.87866 15.8123 6.31082 15.2165 5.0745 14.2238ZM12.4801 9.62526C13.0348 11.0973 13.5147 12.708 13.8365 14.4211C15.3317 13.3265 16.3911 11.6717 16.7035 9.76788C15.255 9.44251 13.8447 9.39503 12.4801 9.62526Z" fill="#9B9B9B"/>
</g>
</svg>
