<svg width="153" height="115" viewBox="0 0 153 115" fill="none" xmlns="http://www.w3.org/2000/svg">
<path opacity="0.756929" fill-rule="evenodd" clip-rule="evenodd" d="M39.6933 0H10.1345C4.53735 0 0 4.53735 0 10.1345V28.7776V33.7815V95.3695C0 101.875 0.650238 104.4 1.87443 106.783L2.03043 107.08C3.35531 109.558 5.29952 111.502 7.77683 112.827C10.1551 114.099 12.5148 114.8 18.695 114.854L19.4877 114.857H133.374C139.879 114.857 142.404 114.207 144.787 112.983L145.085 112.827C147.562 111.502 149.506 109.558 150.831 107.08C152.103 104.702 152.804 102.342 152.858 96.1622L152.861 95.3695V28.7776C152.861 22.2724 152.211 19.7476 150.987 17.3642L150.831 17.0668C149.506 14.5894 147.562 12.6452 145.085 11.3204C142.607 9.99547 140.15 9.28992 133.374 9.28992L50.8419 9.29053L39.6933 0Z" fill="#3CD4A0"/>
<path opacity="0.899414" fill-rule="evenodd" clip-rule="evenodd" d="M0.000488281 58.4771C9.54565 55.0316 21.9728 49.6512 37.7396 39.1413C46.3708 33.3879 46.4425 24.1131 46.525 13.4635C46.544 11.0053 46.5636 8.47382 46.6891 5.89551L50.8424 9.35659L133.374 9.35598C140.15 9.35598 142.608 10.0615 145.085 11.3864C147.562 12.7113 149.507 14.6555 150.831 17.1328L150.987 17.4303C152.212 19.8136 152.862 22.3384 152.862 28.8437V43.0179C150.59 48.6922 147.659 54.1507 144.733 59.3083C143.828 60.9028 142.586 62.3329 141.349 63.7574L141.349 63.7575C139.334 66.0765 137.333 68.3806 136.822 71.3548C135.995 76.1652 136.631 81.0628 137.268 85.9701C137.813 90.1703 138.359 94.3777 137.989 98.5435C137.349 105.765 128.214 111.17 118.908 114.923H19.4882L18.6955 114.92C12.5153 114.866 10.1555 114.165 7.77732 112.893C5.30001 111.568 3.3558 109.624 2.03092 107.146L1.87491 106.849C0.650726 104.466 0.000488281 101.941 0.000488281 95.4355V58.4771Z" fill="#3CD4A0"/>
<path opacity="0.245024" fill-rule="evenodd" clip-rule="evenodd" d="M124.416 48.3838C133.005 48.3838 139.968 41.4209 139.968 32.8318C139.968 24.2427 133.005 17.2798 124.416 17.2798C115.827 17.2798 108.864 24.2427 108.864 32.8318C108.864 41.4209 115.827 48.3838 124.416 48.3838Z" fill="white"/>
<g opacity="0.80199">
<path fill-rule="evenodd" clip-rule="evenodd" d="M128.016 24.9121H120.816C119.623 24.9121 118.656 25.8792 118.656 27.0721V38.5921C118.656 39.785 119.623 40.7521 120.816 40.7521H128.016C129.209 40.7521 130.176 39.785 130.176 38.5921V27.0721C130.176 25.8792 129.209 24.9121 128.016 24.9121ZM120.096 27.0721C120.096 26.6745 120.418 26.3521 120.816 26.3521H128.016C128.413 26.3521 128.736 26.6745 128.736 27.0721V38.5921C128.736 38.9898 128.413 39.3121 128.016 39.3121H120.816C120.418 39.3121 120.096 38.9898 120.096 38.5921V27.0721Z" fill="white"/>
<mask id="mask0" mask-type="alpha" maskUnits="userSpaceOnUse" x="118" y="24" width="13" height="17">
<path fill-rule="evenodd" clip-rule="evenodd" d="M128.016 24.9121H120.816C119.623 24.9121 118.656 25.8792 118.656 27.0721V38.5921C118.656 39.785 119.623 40.7521 120.816 40.7521H128.016C129.209 40.7521 130.176 39.785 130.176 38.5921V27.0721C130.176 25.8792 129.209 24.9121 128.016 24.9121ZM120.096 27.0721C120.096 26.6745 120.418 26.3521 120.816 26.3521H128.016C128.413 26.3521 128.736 26.6745 128.736 27.0721V38.5921C128.736 38.9898 128.413 39.3121 128.016 39.3121H120.816C120.418 39.3121 120.096 38.9898 120.096 38.5921V27.0721Z" fill="white"/>
</mask>
<g mask="url(#mask0)">
</g>
<path fill-rule="evenodd" clip-rule="evenodd" d="M121.536 34.8478C121.536 36.4384 122.825 37.7278 124.416 37.7278C126.006 37.7278 127.296 36.4384 127.296 34.8478C127.296 33.2572 126.006 31.9678 124.416 31.9678C122.825 31.9678 121.536 33.2572 121.536 34.8478ZM125.856 34.8478C125.856 35.6431 125.211 36.2878 124.416 36.2878C123.62 36.2878 122.976 35.6431 122.976 34.8478C122.976 34.0525 123.62 33.4078 124.416 33.4078C125.211 33.4078 125.856 34.0525 125.856 34.8478Z" fill="white"/>
</g>
</svg>