<svg width="13" height="8" viewBox="0 0 13 8" fill="none" xmlns="http://www.w3.org/2000/svg">
<path fill-rule="evenodd" clip-rule="evenodd" d="M12.2667 4.26667C11.9721 4.26667 11.7333 4.02789 11.7333 3.73333V1.82091L7.57712 5.97712C7.36884 6.1854 7.03116 6.1854 6.82288 5.97712L4.53333 3.68758L0.910457 7.31046C0.702177 7.51874 0.364489 7.51874 0.15621 7.31046C-0.0520699 7.10218 -0.0520699 6.76449 0.15621 6.55621L4.15621 2.55621C4.36449 2.34793 4.70218 2.34793 4.91046 2.55621L7.2 4.84575L10.9791 1.06667H9.06667C8.77212 1.06667 8.53333 0.827885 8.53333 0.533333C8.53333 0.238781 8.77212 0 9.06667 0H12.2667C12.339 0 12.4079 0.0143921 12.4708 0.0404683C12.5309 0.0653113 12.5873 0.101593 12.6368 0.149312C12.6415 0.153867 12.6461 0.158509 12.6507 0.163234C12.6984 0.212713 12.7347 0.269139 12.7595 0.329182C12.7856 0.392066 12.8 0.461019 12.8 0.533333V3.73333C12.8 4.02789 12.5612 4.26667 12.2667 4.26667Z" fill="#3CD4A0"/>
<mask id="mask0" mask-type="alpha" maskUnits="userSpaceOnUse" x="0" y="0" width="13" height="8">
<path fill-rule="evenodd" clip-rule="evenodd" d="M12.2667 4.26667C11.9721 4.26667 11.7333 4.02789 11.7333 3.73333V1.82091L7.57712 5.97712C7.36884 6.1854 7.03116 6.1854 6.82288 5.97712L4.53333 3.68758L0.910457 7.31046C0.702177 7.51874 0.364489 7.51874 0.15621 7.31046C-0.0520699 7.10218 -0.0520699 6.76449 0.15621 6.55621L4.15621 2.55621C4.36449 2.34793 4.70218 2.34793 4.91046 2.55621L7.2 4.84575L10.9791 1.06667H9.06667C8.77212 1.06667 8.53333 0.827885 8.53333 0.533333C8.53333 0.238781 8.77212 0 9.06667 0H12.2667C12.339 0 12.4079 0.0143921 12.4708 0.0404683C12.5309 0.0653113 12.5873 0.101593 12.6368 0.149312C12.6415 0.153867 12.6461 0.158509 12.6507 0.163234C12.6984 0.212713 12.7347 0.269139 12.7595 0.329182C12.7856 0.392066 12.8 0.461019 12.8 0.533333V3.73333C12.8 4.02789 12.5612 4.26667 12.2667 4.26667Z" fill="white"/>
</mask>
<g mask="url(#mask0)">
</g>
</svg>
