<svg width="19" height="18" viewBox="0 0 19 18" fill="none" xmlns="http://www.w3.org/2000/svg">
<g opacity="0.6988">
<path fill-rule="evenodd" clip-rule="evenodd" d="M5.70972 0H13.3771C15.9811 0 18.0996 2.11847 18.0995 4.72227V12.3896C18.0995 14.9934 15.9811 17.1119 13.3771 17.1119H5.70972C3.10591 17.1119 0.987549 14.9935 0.987549 12.3896V4.72227C0.987549 2.11847 3.10591 0 5.70972 0ZM13.3772 15.5937C15.1439 15.5937 16.5813 14.1564 16.5813 12.3896H16.5812V4.72227C16.5812 2.95563 15.1438 1.51825 13.3771 1.51825H5.70972C3.94308 1.51825 2.5058 2.95563 2.5058 4.72227V12.3896C2.5058 14.1564 3.94308 15.5938 5.70972 15.5937H13.3772Z" fill="#9B9B9B"/>
<path fill-rule="evenodd" clip-rule="evenodd" d="M5.13428 8.55628C5.13428 6.12495 7.11226 4.14697 9.54358 4.14697C11.9749 4.14697 13.9529 6.12495 13.9529 8.55628C13.9529 10.9875 11.9749 12.9654 9.54358 12.9654C7.11226 12.9654 5.13428 10.9875 5.13428 8.55628ZM6.65253 8.55618C6.65253 10.1502 7.94952 11.447 9.54358 11.447C11.1376 11.447 12.4346 10.1502 12.4346 8.55618C12.4346 6.96201 11.1377 5.66512 9.54358 5.66512C7.94942 5.66512 6.65253 6.96201 6.65253 8.55618Z" fill="#9B9B9B"/>
<path d="M14.1378 2.85938C13.8453 2.85938 13.5579 2.9778 13.3513 3.18529C13.1437 3.39178 13.0244 3.67923 13.0244 3.97276C13.0244 4.26538 13.1438 4.55273 13.3513 4.76023C13.5578 4.96671 13.8453 5.08614 14.1378 5.08614C14.4313 5.08614 14.7178 4.96671 14.9253 4.76023C15.1328 4.55273 15.2512 4.26528 15.2512 3.97276C15.2512 3.67923 15.1328 3.39178 14.9253 3.18529C14.7188 2.9778 14.4313 2.85938 14.1378 2.85938Z" fill="#9B9B9B"/>
</g>
</svg>
