<svg width="20" height="15" viewBox="0 0 20 15" fill="none" xmlns="http://www.w3.org/2000/svg">
<g opacity="0.6988">
<path d="M18.2609 1.77091L19.7587 0.338048V0.0244141H14.57L10.8721 9.22852L6.66503 0.0244141H1.22453V0.338048L2.97416 2.44432C3.14466 2.59997 3.23383 2.82757 3.21114 3.05673V11.334C3.26511 11.632 3.16813 11.9386 2.95852 12.1552L0.987549 14.5439V14.8536H6.57587V14.54L4.6049 12.1552C4.39138 11.9378 4.29048 11.6367 4.3335 11.334V4.17439L9.23902 14.8575H9.80919L14.0272 4.17439V12.6847C14.0272 12.9092 14.0272 12.9554 13.8802 13.1024L12.3628 14.5705V14.8849H19.7242V14.5712L18.2617 13.1392C18.1334 13.0422 18.0669 12.8795 18.0943 12.7215V2.18857C18.0669 2.02979 18.1326 1.86711 18.2609 1.77091Z" fill="#9B9B9B"/>
</g>
</svg>
