<?xml version="1.0" encoding="iso-8859-1"?>
<!-- Generator: Adobe Illustrator 16.0.0, SVG Export Plug-In . SVG Version: 6.00 Build 0)  -->
<!DOCTYPE svg PUBLIC "-//W3C//DTD SVG 1.1//EN" "http://www.w3.org/Graphics/SVG/1.1/DTD/svg11.dtd">
<svg version="1.1" id="Capa_1" xmlns="http://www.w3.org/2000/svg" xmlns:xlink="http://www.w3.org/1999/xlink" x="0px" y="0px"
	 width="56.48px" height="56.48px" viewBox="0 0 56.48 56.48" style="enable-background:new 0 0 56.48 56.48;" xml:space="preserve"
	>
<g>
	<path d="M24.25,26.305h-4.284v-5.367h4.284v1.118h-3.002v0.967h2.931v1.1h-2.931v1.072h3.002V26.305z M14.703,26.305l-1.863-4.206
		v4.207h-2.61l-0.493-1.197h-2.67l-0.498,1.197H5.176l2.297-5.367h1.904l2.183,5.082v-5.082h2.094l1.679,3.641l1.541-3.641h2.138
		v5.367h-1.315l-0.005-4.203l-1.86,4.203L14.703,26.305L14.703,26.305z M9.273,23.99l-0.877-2.139L7.524,23.99H9.273z
		 M30.022,31.944c0,1.491-1.112,1.799-2.233,1.799h-1.6v1.8h-2.493l-1.58-1.777l-1.642,1.777h-5.081v-5.367h5.158l1.58,1.758
		l1.632-1.758h4.098C28.879,30.175,30.022,30.458,30.022,31.944z M21.291,32.849l-1.403-1.563h-3.215v0.976h2.815v1.096h-2.815
		v1.068h3.152L21.291,32.849z M24.911,30.751l-1.97,2.116l1.97,2.188V30.751z M28.645,31.944c0-0.47-0.32-0.659-0.784-0.659h-1.672
		v1.367h1.656C28.339,32.653,28.645,32.408,28.645,31.944z M26.424,26.305H25.14v-5.367h2.95c0.655,0,1.138,0.017,1.554,0.257
		c0.404,0.24,0.648,0.59,0.648,1.189c0,0.855-0.57,1.298-0.904,1.43c0.281,0.107,0.521,0.296,0.635,0.452
		c0.182,0.267,0.213,0.505,0.213,0.984v1.055h-1.294l-0.006-0.677c0-0.323,0.031-0.787-0.202-1.045
		c-0.187-0.188-0.473-0.229-0.935-0.229h-1.375V26.305z M26.422,23.248h1.559c0.249,0,0.457-0.003,0.635-0.11
		c0.165-0.087,0.264-0.276,0.264-0.51c0-0.23-0.103-0.396-0.269-0.474c-0.152-0.086-0.386-0.097-0.608-0.097h-1.58L26.422,23.248
		L26.422,23.248z M32.344,20.939h-1.309v5.367h1.309V20.939z M33.66,25.712c-0.452-0.456-0.688-1.074-0.688-2.049
		c0-0.796,0.141-1.524,0.691-2.099c0.413-0.428,1.064-0.625,1.948-0.625h1.241v1.15h-1.215c-0.471,0-0.734,0.07-0.988,0.318
		c-0.219,0.226-0.368,0.652-0.368,1.216c0,0.574,0.112,0.989,0.353,1.259c0.197,0.213,0.559,0.277,0.894,0.277h0.575l1.812-4.22
		h1.921l2.172,5.076v-5.076h1.953l2.256,3.738v-3.738h1.312v5.367h-1.816l-2.434-4.028v4.028h-2.611l-0.5-1.197h-2.664l-0.482,1.197
		H35.52C34.895,26.305,34.106,26.167,33.66,25.712z M37.963,23.99h1.77l-0.889-2.139L37.963,23.99z M35.27,23.041
		c-0.012,0.017-0.102,0.21-0.102,0.582c0,0.368,0.059,0.545,0.102,0.625c0.045,0.012,0.128,0.026,0.252,0.026l0.556-1.299h-0.438
		C35.338,22.974,35.307,23.006,35.27,23.041z M56.48,11.393v33.695c0,0.803-0.65,1.454-1.454,1.454H1.454
		C0.65,46.542,0,45.89,0,45.087V11.393c0-0.803,0.65-1.454,1.454-1.454h53.572C55.83,9.939,56.48,10.59,56.48,11.393z
		 M14.703,27.192h1.127c0.352,0,0.668-0.207,0.81-0.528l0.17-0.38v0.022c0,0.489,0.396,0.885,0.886,0.885h1.315
		c0.18,0,0.337-0.068,0.478-0.159c0.14,0.091,0.297,0.159,0.478,0.159h4.284c0.166,0,0.313-0.058,0.444-0.137
		c0.134,0.079,0.279,0.137,0.445,0.137h1.284c0.489,0,0.886-0.397,0.886-0.886v-1.066h0.489c0.111,0,0.19,0.003,0.249,0.007
		c0.006,0.091,0.004,0.199,0.004,0.271l-0.002,0.118l0.005,0.677c0.004,0.486,0.4,0.879,0.887,0.879h1.294
		c0.146,0,0.277-0.044,0.398-0.107c0.123,0.063,0.256,0.107,0.401,0.107h1.31c0.429,0,0.769-0.31,0.852-0.714
		c0.729,0.611,1.751,0.714,2.322,0.714h1.502c0.359,0,0.685-0.22,0.818-0.555l0.262-0.643h1.478l0.271,0.652
		c0.14,0.33,0.461,0.545,0.818,0.545h2.611c0.488,0,0.886-0.397,0.886-0.886v-0.847l0.787,1.305
		c0.161,0.266,0.448,0.428,0.761,0.428h1.816c0.488,0,0.886-0.397,0.886-0.886v-5.367c0-0.489-0.396-0.886-0.886-0.886h-1.312
		c-0.49,0-0.888,0.397-0.888,0.886v0.554l-0.61-1.011c-0.16-0.266-0.447-0.428-0.758-0.428h-1.953c-0.49,0-0.887,0.397-0.887,0.886
		v0.753l-0.471-1.102c-0.141-0.325-0.46-0.537-0.814-0.537h-1.921c-0.196,0-0.381,0.064-0.53,0.176
		c-0.147-0.111-0.332-0.176-0.529-0.176h-1.241c-1.052,0-1.834,0.256-2.408,0.753c-0.065-0.423-0.417-0.753-0.86-0.753h-1.309
		c-0.349,0-0.645,0.207-0.789,0.499c-0.055-0.04-0.099-0.087-0.16-0.124c-0.603-0.348-1.234-0.375-1.997-0.375h-2.95
		c-0.166,0-0.312,0.058-0.445,0.137c-0.131-0.079-0.278-0.137-0.444-0.137h-4.284c-0.181,0-0.338,0.067-0.478,0.159
		c-0.141-0.092-0.298-0.159-0.478-0.159h-2.138c-0.354,0-0.676,0.213-0.814,0.541l-0.762,1.796l-0.839-1.822
		c-0.146-0.313-0.461-0.515-0.805-0.515H11.56c-0.49,0-0.886,0.397-0.886,0.886v0.771l-0.481-1.122
		c-0.141-0.325-0.46-0.536-0.815-0.536H7.474c-0.355,0-0.676,0.212-0.815,0.537l-2.296,5.367c-0.118,0.273-0.089,0.587,0.074,0.837
		c0.164,0.248,0.442,0.398,0.74,0.398h1.394c0.356,0,0.68-0.216,0.816-0.546l0.271-0.652h1.486l0.267,0.648
		c0.137,0.332,0.46,0.549,0.82,0.549h2.609c0.489,0,0.886-0.397,0.886-0.886v-0.021l0.168,0.381
		C14.035,26.985,14.353,27.192,14.703,27.192z M52.19,33.849c0-0.75-0.2-1.308-0.64-1.76c-0.009-0.009-0.019-0.018-0.026-0.026
		c0.245-0.158,0.405-0.433,0.405-0.746v-1.142c0-0.49-0.396-0.887-0.885-0.887h-2.572c-0.801,0-1.402,0.235-1.842,0.592
		c-0.123-0.343-0.441-0.592-0.828-0.592h-2.57c-0.706,0-1.266,0.176-1.688,0.462c-0.152-0.271-0.432-0.462-0.764-0.462H36.5
		c-0.346,0-0.635,0.202-0.781,0.489c-0.062-0.042-0.105-0.093-0.172-0.132c-0.619-0.331-1.279-0.357-1.961-0.357h-2.962
		c-0.347,0-0.639,0.203-0.784,0.493c-0.449-0.294-1.081-0.493-1.979-0.493h-4.098c-0.247,0-0.482,0.102-0.65,0.283l-0.971,1.048
		l-0.932-1.037c-0.167-0.188-0.406-0.294-0.659-0.294h-5.158c-0.489,0-0.886,0.396-0.886,0.887v5.367
		c0,0.489,0.396,0.887,0.886,0.887h5.081c0.247,0,0.482-0.104,0.65-0.285l0.979-1.06l0.929,1.046
		c0.168,0.189,0.41,0.297,0.663,0.297h2.493c0.49,0,0.887-0.396,0.887-0.886v-0.915h0.713c0.866,0,1.494-0.178,1.949-0.449v1.364
		c0,0.489,0.396,0.886,0.887,0.886h1.289c0.489,0,0.886-0.396,0.886-0.886v-1.075h0.484c0.118,0,0.201,0.004,0.26,0.008
		c0.006,0.095,0.006,0.211,0.004,0.287v0.78c0,0.489,0.396,0.886,0.887,0.886h1.287c0.142,0,0.271-0.041,0.39-0.1
		c0.118,0.061,0.249,0.1,0.392,0.1h4.28c0.14,0,0.267-0.039,0.384-0.096c0.118,0.057,0.244,0.096,0.385,0.096h2.498
		c0.797,0,1.441-0.194,1.928-0.539c0.136,0.316,0.449,0.539,0.815,0.539h2.498C51.107,36.429,52.19,35.464,52.19,33.849z
		 M44.215,32.281l-0.689-0.02c-0.219,0-0.363-0.014-0.5-0.061c-0.161-0.061-0.28-0.197-0.28-0.4c0-0.17,0.052-0.299,0.194-0.387
		c0.128-0.087,0.279-0.097,0.514-0.097h2.352v-1.142h-2.57c-1.346,0-1.834,0.818-1.834,1.598c0,1.697,1.503,1.621,2.701,1.66
		c0.225,0,0.359,0.037,0.457,0.119c0.09,0.076,0.156,0.198,0.156,0.355c0,0.146-0.062,0.268-0.15,0.35
		c-0.108,0.102-0.281,0.133-0.523,0.133h-2.488v1.151h2.498c1.293,0,2.016-0.539,2.016-1.694c0-0.551-0.135-0.879-0.385-1.137
		C45.389,32.417,44.911,32.298,44.215,32.281z M34.881,33.048c0.284,0.104,0.519,0.295,0.627,0.451
		c0.183,0.262,0.209,0.506,0.213,0.979v1.064h-1.287v-0.671c0-0.323,0.031-0.801-0.207-1.051c-0.188-0.192-0.473-0.238-0.941-0.238
		h-1.37v1.96h-1.288v-5.367h2.961c0.649,0,1.121,0.027,1.545,0.252c0.403,0.244,0.658,0.58,0.658,1.192
		C35.79,32.478,35.217,32.915,34.881,33.048z M34.371,31.866c0-0.229-0.099-0.396-0.265-0.483c-0.156-0.092-0.386-0.097-0.612-0.097
		h-1.58v1.206h1.559c0.25,0,0.463-0.009,0.635-0.111C34.272,32.281,34.371,32.095,34.371,31.866z M36.502,35.542h4.28v-1.113
		l-3.004-0.006v-1.067h2.93v-1.095h-2.93v-0.977h3.004v-1.109h-4.28V35.542z M49.456,32.281l-0.69-0.02
		c-0.217,0-0.362-0.014-0.5-0.061c-0.159-0.061-0.279-0.197-0.279-0.4c0-0.17,0.052-0.299,0.193-0.387
		c0.129-0.087,0.281-0.097,0.515-0.097h2.353v-1.142h-2.572c-1.344,0-1.834,0.818-1.834,1.598c0,1.697,1.504,1.621,2.703,1.66
		c0.224,0,0.357,0.037,0.457,0.119c0.088,0.076,0.155,0.198,0.155,0.355c0,0.146-0.063,0.268-0.149,0.35
		c-0.109,0.102-0.282,0.133-0.524,0.133h-2.487v1.151h2.498c1.293,0,2.014-0.539,2.014-1.694c0-0.551-0.133-0.879-0.385-1.137
		C50.631,32.417,50.152,32.298,49.456,32.281z"/>
</g>
<g>
</g>
<g>
</g>
<g>
</g>
<g>
</g>
<g>
</g>
<g>
</g>
<g>
</g>
<g>
</g>
<g>
</g>
<g>
</g>
<g>
</g>
<g>
</g>
<g>
</g>
<g>
</g>
<g>
</g>
</svg>
