<?xml version="1.0" encoding="utf-8"?>
<!-- Generator: Adobe Illustrator 19.0.0, SVG Export Plug-In . SVG Version: 6.00 Build 0)  -->
<svg version="1.1" id="Layer_1" xmlns="http://www.w3.org/2000/svg" xmlns:xlink="http://www.w3.org/1999/xlink" x="0px" y="0px"
	 viewBox="0 0 192.2 71" style="enable-background:new 0 0 192.2 71;" xml:space="preserve">
<style type="text/css">
	.st0{fill:#FDAE26;}
	.st1{fill:#FFFFFF;}
</style>
<polygon id="XMLID_1583_" class="st0" points="192.2,71 33.3,71 0,0 158.9,0 "/>
<g id="XMLID_1065_">
	<path id="XMLID_1579_" class="st1" d="M36.5,48.3H34c-0.4,0-0.7-0.2-0.7-0.7V24.2c0-0.4,0.2-0.7,0.7-0.7h12.1
		c0.4,0,0.7,0.2,0.7,0.7v2c0,0.4-0.2,0.7-0.7,0.7h-8.5c-0.3,0-0.5,0.1-0.5,0.4v7.3c0,0.3,0.2,0.4,0.5,0.4H45c0.5,0,0.7,0.2,0.7,0.7
		v1.9c0,0.5-0.2,0.7-0.7,0.7h-7.4c-0.3,0-0.5,0.1-0.5,0.4v9.1C37.1,48.1,36.9,48.3,36.5,48.3z"/>
	<path id="XMLID_1569_" class="st1" d="M53.7,48.3h-2.4c-0.4,0-0.7-0.2-0.7-0.7V21.9c0-0.4,0.2-0.7,0.7-0.7h2.4
		c0.4,0,0.7,0.2,0.7,0.7v25.7C54.4,48.1,54.2,48.3,53.7,48.3z"/>
	<path id="XMLID_1548_" class="st1" d="M66.5,48.3H65c-1.9,0-3.4-0.5-4.4-1.6c-1-1.1-1.6-2.5-1.6-4.4v-7.7c0-1.9,0.5-3.4,1.6-4.4
		c1-1,2.5-1.6,4.4-1.6h8.6c0.5,0,0.7,0.2,0.7,0.7v18.3c0,0.4-0.2,0.7-0.7,0.7h-2.4c-0.4,0-0.7-0.2-0.7-0.7v-1.4h-0.2
		C69.8,47.6,68.5,48.3,66.5,48.3z M70.6,41.7v-9.4c0-0.3-0.1-0.4-0.4-0.4h-4.6c-1.8,0-2.8,0.9-2.8,2.8v7.4c0,1.9,0.9,2.8,2.8,2.8
		h1.8C69.5,45,70.6,43.9,70.6,41.7z"/>
	<path id="XMLID_1458_" class="st1" d="M79.7,31.9h-1.8c-0.3,0-0.4,0-0.5-0.1c-0.1-0.1-0.1-0.2-0.1-0.5v-2c0-0.4,0.2-0.7,0.7-0.7
		h1.8c0.3,0,0.4-0.1,0.4-0.4v-3.5c0-0.4,0.2-0.7,0.7-0.7h2.4c0.4,0,0.7,0.2,0.7,0.7v3.5c0,0.3,0.1,0.4,0.4,0.4h3.6
		c0.5,0,0.7,0.2,0.7,0.7v2c0,0.4-0.2,0.6-0.7,0.6h-3.6c-0.3,0-0.4,0.1-0.4,0.4v9.9c0,1.9,1,2.8,2.9,2.8h1.5c0.5,0,0.7,0.2,0.7,0.7v2
		c0,0.4-0.2,0.6-0.7,0.6h-2.1c-1.9,0-3.4-0.5-4.5-1.5c-1.1-1-1.6-2.5-1.6-4.3V32.3C80.1,32.1,80,31.9,79.7,31.9z"/>
	<path id="XMLID_1452_" class="st1" d="M94.8,48.3h-1.1c-0.3,0-0.4-0.2-0.4-0.5V21.7c0-0.3,0.1-0.5,0.4-0.5h1.1
		c0.3,0,0.4,0.2,0.4,0.5v26.1C95.2,48.1,95.1,48.3,94.8,48.3z"/>
	<path id="XMLID_1404_" class="st1" d="M109.5,48.3h-3.3c-1.7,0-3-0.5-3.9-1.5s-1.4-2.3-1.4-4v-8.7c0-1.7,0.5-3,1.4-4
		c1-1,2.3-1.5,3.9-1.5h3.3c1.7,0,3,0.5,4,1.5c1,1,1.5,2.3,1.5,4v8.7c0,1.7-0.5,3-1.5,4C112.5,47.8,111.2,48.3,109.5,48.3z
		 M106.4,46.6h3c1.2,0,2.1-0.3,2.7-1c0.6-0.7,0.9-1.6,0.9-2.8v-8.6c0-1.2-0.3-2.1-0.9-2.8c-0.6-0.7-1.5-1-2.7-1h-3
		c-1.2,0-2.1,0.3-2.7,1c-0.6,0.7-0.9,1.6-0.9,2.8v8.6c0,1.2,0.3,2.1,0.9,2.8C104.3,46.2,105.2,46.6,106.4,46.6z"/>
	<path id="XMLID_1076_" class="st1" d="M127.9,47.2h-2.5c-1.6,0-2.9-0.5-3.9-1.5c-1-1-1.4-2.3-1.4-4v-7.6c0-1.7,0.5-3,1.4-4
		c1-1,2.3-1.5,3.9-1.5h8.2c0.3,0,0.4,0.2,0.4,0.5v19.1c0,1.7-0.5,3-1.5,4c-1,1-2.3,1.5-4,1.5h-7c-0.3,0-0.4-0.1-0.4-0.4v-0.9
		c0-0.3,0.1-0.4,0.4-0.4h6.9c1.2,0,2.1-0.3,2.7-1c0.6-0.7,0.9-1.6,0.9-2.8v-3h-0.2C131.3,46.5,129.9,47.2,127.9,47.2z M132.1,41.7
		V30.7c0-0.2-0.1-0.3-0.3-0.3h-6.1c-1.2,0-2.1,0.3-2.7,1c-0.6,0.7-0.9,1.6-0.9,2.8v7.5c0,1.2,0.3,2.1,0.9,2.8c0.6,0.7,1.5,1,2.7,1
		h2.5c1.2,0,2.2-0.3,2.9-1C131.7,43.8,132.1,42.9,132.1,41.7z"/>
	<path id="XMLID_1068_" class="st1" d="M140,25.4v-3.7c0-0.3,0.1-0.4,0.4-0.4h1.2c0.3,0,0.4,0.1,0.4,0.4v3.7c0,0.3-0.1,0.5-0.4,0.5
		h-1.2C140.1,25.9,140,25.7,140,25.4z M140,47.8V29.1c0-0.3,0.1-0.5,0.4-0.5h1.1c0.3,0,0.4,0.2,0.4,0.5v18.7c0,0.3-0.1,0.5-0.4,0.5
		h-1.2C140.1,48.3,140,48.1,140,47.8z"/>
	<path id="XMLID_1066_" class="st1" d="M158.8,47v0.9c0,0.3-0.1,0.4-0.4,0.4h-5.5c-1.7,0-3-0.5-3.9-1.5s-1.4-2.3-1.4-4v-8.7
		c0-1.7,0.5-3,1.4-4c1-1,2.3-1.5,3.9-1.5h5.5c0.3,0,0.4,0.1,0.4,0.4V30c0,0.3-0.1,0.4-0.4,0.4H153c-1.2,0-2.1,0.3-2.7,1
		c-0.6,0.7-0.9,1.6-0.9,2.8v8.5c0,1.2,0.3,2.1,0.9,2.8c0.6,0.7,1.5,1,2.7,1h5.4C158.7,46.6,158.8,46.7,158.8,47z"/>
</g>
</svg>
