<?xml version="1.0" encoding="utf-8"?>
<!-- Generator: Adobe Illustrator 19.0.0, SVG Export Plug-In . SVG Version: 6.00 Build 0)  -->
<svg version="1.1" id="Layer_1" xmlns="http://www.w3.org/2000/svg" xmlns:xlink="http://www.w3.org/1999/xlink" x="0px" y="0px"
	 viewBox="0 0 34 21.5" style="enable-background:new 0 0 34 21.5;" xml:space="preserve">
<style type="text/css">
	.st0{fill:#FFFFFF;}
	.st1{fill:#FF5F00;}
	.st2{fill:#EB001B;}
	.st3{fill:#F79E1B;}
</style>
<rect id="XMLID_1_" x="0" width="34" height="21.5"/>
<g id="XMLID_4703_">
	<path id="XMLID_4607_" class="st0" d="M9.5,19.8v-1.2c0-0.5-0.3-0.8-0.7-0.8c-0.2,0-0.5,0.1-0.7,0.3c-0.1-0.2-0.3-0.3-0.6-0.3
		c-0.2,0-0.4,0.1-0.6,0.3v-0.2H6.5v1.9h0.4v-1.1c0-0.3,0.2-0.5,0.5-0.5c0.3,0,0.4,0.2,0.4,0.5v1.1h0.4v-1.1c0-0.3,0.2-0.5,0.5-0.5
		c0.3,0,0.4,0.2,0.4,0.5v1.1L9.5,19.8L9.5,19.8z M15.8,17.9h-0.7v-0.6h-0.4v0.6h-0.4v0.4h0.4v0.9c0,0.4,0.2,0.7,0.7,0.7
		c0.2,0,0.4-0.1,0.5-0.1l-0.1-0.3c-0.1,0.1-0.3,0.1-0.4,0.1c-0.2,0-0.3-0.1-0.3-0.3v-0.9h0.7L15.8,17.9L15.8,17.9z M19.4,17.8
		c-0.2,0-0.4,0.1-0.5,0.3v-0.2h-0.4v1.9h0.4v-1.1c0-0.3,0.2-0.5,0.4-0.5c0.1,0,0.2,0,0.3,0l0.1-0.4C19.6,17.8,19.5,17.8,19.4,17.8
		L19.4,17.8z M14,18c-0.2-0.1-0.5-0.2-0.8-0.2c-0.5,0-0.8,0.2-0.8,0.6c0,0.3,0.2,0.5,0.7,0.6l0.2,0c0.2,0,0.4,0.1,0.4,0.2
		c0,0.1-0.2,0.2-0.5,0.2c-0.3,0-0.5-0.1-0.6-0.2l-0.2,0.3c0.3,0.2,0.6,0.3,0.8,0.3c0.6,0,0.9-0.3,0.9-0.6c0-0.3-0.2-0.5-0.7-0.6
		l-0.2,0c-0.2,0-0.3-0.1-0.3-0.2c0-0.1,0.2-0.2,0.4-0.2c0.2,0,0.5,0.1,0.6,0.2L14,18z M19.8,18.8c0,0.6,0.4,1,1,1
		c0.3,0,0.5-0.1,0.7-0.2l-0.2-0.3c-0.2,0.1-0.3,0.2-0.5,0.2c-0.3,0-0.6-0.3-0.6-0.7c0-0.4,0.3-0.7,0.6-0.7c0.2,0,0.3,0.1,0.5,0.2
		l0.2-0.3c-0.2-0.2-0.4-0.2-0.7-0.2C20.2,17.8,19.8,18.2,19.8,18.8L19.8,18.8z M17.1,17.8c-0.6,0-1,0.4-1,1c0,0.6,0.4,1,1,1
		c0.3,0,0.6-0.1,0.8-0.3l-0.2-0.3c-0.2,0.1-0.4,0.2-0.6,0.2c-0.3,0-0.5-0.2-0.6-0.5H18c0-0.1,0-0.1,0-0.2
		C18,18.2,17.6,17.8,17.1,17.8L17.1,17.8z M17.1,18.2c0.3,0,0.5,0.2,0.5,0.5h-1C16.6,18.4,16.8,18.2,17.1,18.2L17.1,18.2z
		 M11.9,18.8v-1h-0.4v0.2c-0.1-0.2-0.4-0.3-0.6-0.3c-0.5,0-1,0.4-1,1s0.4,1,1,1c0.3,0,0.5-0.1,0.6-0.3v0.2h0.4V18.8z M10.3,18.8
		c0-0.4,0.2-0.7,0.6-0.7c0.4,0,0.6,0.3,0.6,0.7s-0.2,0.7-0.6,0.7C10.5,19.5,10.3,19.2,10.3,18.8L10.3,18.8z M25.2,17.8
		c-0.2,0-0.4,0.1-0.5,0.3v-0.2h-0.4v1.9h0.4v-1.1c0-0.3,0.2-0.5,0.4-0.5c0.1,0,0.2,0,0.3,0l0.1-0.4C25.4,17.8,25.3,17.8,25.2,17.8
		L25.2,17.8z M28.3,19.5C28.4,19.5,28.4,19.5,28.3,19.5c0.1,0,0.1,0,0.1,0.1c0,0,0,0,0,0.1c0,0,0,0,0,0.1c0,0,0,0.1,0,0.1
		c0,0,0,0,0,0.1c0,0,0,0-0.1,0c0,0,0,0-0.1,0c0,0-0.1,0-0.1,0c0,0,0,0-0.1,0c0,0,0,0,0-0.1c0,0,0,0,0-0.1c0,0,0-0.1,0-0.1
		c0,0,0,0,0-0.1C28.2,19.6,28.2,19.5,28.3,19.5C28.3,19.5,28.3,19.5,28.3,19.5z M28.3,19.9C28.4,19.9,28.4,19.9,28.3,19.9
		c0.1,0,0.1,0,0.1,0c0,0,0,0,0,0c0,0,0,0,0-0.1c0,0,0,0,0-0.1c0,0,0,0,0,0c0,0,0,0,0,0c0,0,0,0-0.1,0c0,0,0,0-0.1,0c0,0,0,0,0,0
		c0,0,0,0,0,0c0,0,0,0,0,0.1c0,0,0,0,0,0.1c0,0,0,0,0,0C28.2,19.8,28.3,19.8,28.3,19.9C28.3,19.9,28.3,19.9,28.3,19.9z M28.3,19.6
		C28.4,19.6,28.4,19.6,28.3,19.6C28.4,19.6,28.4,19.7,28.3,19.6C28.4,19.7,28.4,19.7,28.3,19.6c0,0.1,0,0.1,0,0.1l0.1,0.1h0
		l-0.1-0.1h0v0.1h0L28.3,19.6L28.3,19.6L28.3,19.6z M28.3,19.7L28.3,19.7L28.3,19.7C28.4,19.7,28.4,19.7,28.3,19.7
		C28.4,19.7,28.4,19.7,28.3,19.7C28.4,19.7,28.4,19.7,28.3,19.7C28.4,19.7,28.4,19.7,28.3,19.7L28.3,19.7z M23.7,18.8v-1h-0.4v0.2
		c-0.1-0.2-0.4-0.3-0.6-0.3c-0.5,0-1,0.4-1,1s0.4,1,1,1c0.3,0,0.5-0.1,0.6-0.3v0.2h0.4V18.8z M22.2,18.8c0-0.4,0.2-0.7,0.6-0.7
		c0.4,0,0.6,0.3,0.6,0.7s-0.2,0.7-0.6,0.7C22.4,19.5,22.2,19.2,22.2,18.8L22.2,18.8z M27.6,18.8v-1.7h-0.4v1
		c-0.1-0.2-0.4-0.3-0.6-0.3c-0.5,0-1,0.4-1,1s0.4,1,1,1c0.3,0,0.5-0.1,0.6-0.3v0.2h0.4V18.8z M26.1,18.8c0-0.4,0.2-0.7,0.6-0.7
		c0.4,0,0.6,0.3,0.6,0.7s-0.2,0.7-0.6,0.7C26.3,19.5,26.1,19.2,26.1,18.8z"/>
	<g id="XMLID_4571_">
		<rect id="XMLID_4635_" x="13.5" y="3.2" class="st1" width="7" height="11.4"/>
		<path id="XMLID_4576_" class="st2" d="M14.2,8.9c0-2.3,1.1-4.4,2.8-5.7c-1.2-1-2.8-1.6-4.5-1.6c-4,0-7.3,3.3-7.3,7.3
			c0,4,3.3,7.3,7.3,7.3c1.7,0,3.3-0.6,4.5-1.6C15.3,13.3,14.2,11.2,14.2,8.9z"/>
		<path id="XMLID_4707_" class="st3" d="M28.1,13.4v-0.2h0.1v0h-0.2v0H28L28.1,13.4L28.1,13.4z M28.5,13.4v-0.3h-0.1l-0.1,0.2
			l-0.1-0.2h-0.1v0.3h0.1v-0.2l0.1,0.2h0.1l0.1-0.2L28.5,13.4L28.5,13.4L28.5,13.4z"/>
		<path id="XMLID_4631_" class="st3" d="M28.8,8.9c0,4-3.3,7.3-7.3,7.3c-1.7,0-3.3-0.6-4.5-1.6c1.7-1.3,2.8-3.4,2.8-5.7
			c0-2.3-1.1-4.4-2.8-5.7c1.2-1,2.8-1.6,4.5-1.6C25.5,1.6,28.8,4.9,28.8,8.9z"/>
	</g>
</g>
</svg>
