<?xml version="1.0" encoding="utf-8"?>
<!-- Generator: Adobe Illustrator 19.0.0, SVG Export Plug-In . SVG Version: 6.00 Build 0)  -->
<svg version="1.1" id="Layer_1" xmlns="http://www.w3.org/2000/svg" xmlns:xlink="http://www.w3.org/1999/xlink" x="0px" y="0px"
	 viewBox="0 0 960 960" style="enable-background:new 0 0 960 960;" xml:space="preserve">
<style type="text/css">
	.st0{fill:#05A5D1;}
</style>
<g id="XMLID_17_">
	<path id="XMLID_21_" class="st0" d="M960.2,478.3c0-63.5-79.5-123.7-201.5-161C786.8,193,774.3,94.1,719.2,62.4
		c-12.7-7.4-27.6-10.9-43.8-10.9v43.6c9,0,16.2,1.8,22.3,5.1c26.6,15.2,38.1,73.3,29.1,147.9c-2.1,18.4-5.7,37.7-10,57.5
		c-38.3-9.4-80.1-16.6-124.1-21.3c-26.4-36.2-53.7-69-81.3-97.7c63.7-59.2,123.5-91.7,164.2-91.7V51.3l0,0
		c-53.7,0-124.1,38.3-195.2,104.8c-71.1-66.1-141.5-104-195.2-104v43.6c40.5,0,100.5,32.2,164.2,91.1
		c-27.4,28.7-54.7,61.4-80.7,97.5c-44.2,4.7-86,11.9-124.3,21.5c-4.5-19.5-7.8-38.5-10.2-56.7c-9.2-74.7,2.1-132.7,28.5-148.1
		c5.9-3.5,13.5-5.1,22.5-5.1V52.3l0,0c-16.4,0-31.3,3.5-44.2,10.9c-54.9,31.7-67.2,130.4-38.9,254.3C80.5,355,1.4,415,1.4,478.3
		c0,63.5,79.5,123.7,201.5,161c-28.1,124.3-15.6,223.2,39.5,254.8c12.7,7.4,27.6,10.9,44,10.9c53.7,0,124.1-38.3,195.2-104.8
		c71.1,66.1,141.5,104,195.2,104c16.4,0,31.3-3.5,44.2-10.9c54.9-31.7,67.2-130.4,38.9-254.3C881,601.8,960.2,541.6,960.2,478.3z
		 M705.7,348c-7.2,25.2-16.2,51.2-26.4,77.2c-8-15.6-16.4-31.3-25.6-46.9c-9-15.6-18.6-30.9-28.1-45.7
		C653.4,336.6,680.1,341.7,705.7,348z M616.2,556.1c-15.2,26.4-30.9,51.4-47.1,74.7c-29.1,2.5-58.6,3.9-88.3,3.9
		c-29.5,0-59-1.4-87.9-3.7c-16.2-23.3-32.1-48.1-47.3-74.3c-14.9-25.6-28.3-51.6-40.7-77.8c12.1-26.2,25.8-52.4,40.5-78
		c15.2-26.4,30.9-51.4,47.1-74.7c29.1-2.5,58.6-3.9,88.3-3.9c29.5,0,59,1.4,87.9,3.7c16.2,23.3,32.1,48.1,47.3,74.3
		c14.9,25.6,28.3,51.6,40.7,77.8C644.4,504.3,630.9,530.5,616.2,556.1z M679.4,530.7c10.6,26.2,19.5,52.4,27,77.8
		c-25.6,6.3-52.6,11.5-80.5,15.6c9.6-15,19.2-30.5,28.1-46.3C662.9,562.2,671.3,546.3,679.4,530.7z M481.2,739.2
		c-18.2-18.8-36.4-39.7-54.3-62.5c17.6,0.8,35.6,1.4,53.7,1.4c18.4,0,36.5-0.4,54.3-1.4C517.3,699.5,499.2,720.5,481.2,739.2z
		 M335.8,624.1c-27.8-4.1-54.5-9.2-80.1-15.4c7.2-25.2,16.2-51.2,26.4-77.2c8,15.6,16.4,31.3,25.6,46.9
		C316.8,594,326.2,609.3,335.8,624.1z M480.2,217.4c18.2,18.8,36.4,39.7,54.3,62.5c-17.6-0.8-35.6-1.4-53.7-1.4
		c-18.4,0-36.5,0.4-54.3,1.4C444.1,257.1,462.2,236.2,480.2,217.4z M335.6,332.5c-9.6,15-19.2,30.5-28.1,46.3
		c-9,15.6-17.4,31.3-25.4,46.9c-10.6-26.2-19.5-52.4-27-77.8C280.7,341.9,307.6,336.6,335.6,332.5z M158.7,577.2
		C89.5,547.7,44.8,509,44.8,478.3s44.8-69.6,113.9-98.9c16.8-7.2,35.2-13.7,54.1-19.7c11.1,38.3,25.8,78.2,44,119
		c-18,40.7-32.4,80.3-43.4,118.4C194.1,591.1,175.7,584.4,158.7,577.2z M263.9,856.5c-26.6-15.2-38.1-73.3-29.1-147.9
		c2.1-18.4,5.7-37.7,10-57.5c38.3,9.4,80.1,16.6,124.1,21.3c26.4,36.2,53.7,69,81.3,97.7c-63.7,59.2-123.5,91.7-164.2,91.7
		C277.2,861.6,269.7,859.8,263.9,856.5z M727.4,707.6c9.2,74.7-2.1,132.7-28.5,148.1c-5.9,3.5-13.5,5.1-22.5,5.1
		c-40.5,0-100.5-32.2-164.2-91.1c27.4-28.7,54.7-61.4,80.7-97.5c44.2-4.7,86-11.9,124.3-21.5C721.8,670.4,725.3,689.4,727.4,707.6z
		 M802.7,577.2c-16.8,7.2-35.2,13.7-54.1,19.7c-11.1-38.3-25.8-78.2-44-119c18-40.7,32.4-80.3,43.4-118.4
		c19.3,6.1,37.7,12.7,54.9,19.9c69.2,29.5,113.9,68.2,113.9,98.9C916.6,509,871.9,547.9,802.7,577.2z"/>
	<path id="XMLID_3_" class="st0" d="M285,52.1L285,52.1L285,52.1z"/>
	<circle id="XMLID_2_" class="st0" cx="480.6" cy="478.3" r="89.3"/>
	<path id="XMLID_1_" class="st0" d="M675.3,51.5L675.3,51.5L675.3,51.5z"/>
</g>
</svg>
